<svg xmlns="http://www.w3.org/2000/svg" xmlns:xlink="http://www.w3.org/1999/xlink" viewBox="0 0 129.84 598.62"><defs><radialGradient id="a" cx="69.69" cy="532.48" r="58.27" gradientUnits="userSpaceOnUse"><stop offset="0" stop-color="#46ffaa" stop-opacity="0"/><stop offset="0.23" stop-color="#46ffaa" stop-opacity="0.01"/><stop offset="0.42" stop-color="#46ffaa" stop-opacity="0.05"/><stop offset="0.6" stop-color="#46ffaa" stop-opacity="0.12"/><stop offset="0.77" stop-color="#46ffaa" stop-opacity="0.22"/><stop offset="0.93" stop-color="#46ffaa" stop-opacity="0.34"/><stop offset="1" stop-color="#46ffaa" stop-opacity="0.4"/></radialGradient><radialGradient id="m" cx="64.92" cy="526" r="40.66" xlink:href="#a"/><radialGradient id="p" cx="69.69" cy="79.04" r="58.27" xlink:href="#a"/></defs><title>ev-connect</title><circle cx="15.12" cy="497.25" r="14.41" style="fill:url(#a)"/><circle cx="15.12" cy="554.75" r="14.41" style="fill:url(#a)"/><circle cx="114.71" cy="497.25" r="14.41" style="fill:url(#a)"/><circle cx="114.71" cy="554.75" r="14.41" style="fill:url(#a)"/><circle cx="64.92" cy="526" r="24.9" style="fill:url(#a)"/><circle cx="86.31" cy="513.67" r="24.9" style="fill:url(#a)"/><circle cx="43.78" cy="513.67" r="24.9" style="fill:url(#a)"/><circle cx="64.92" cy="550.9" r="24.9" style="fill:url(#a)"/><circle cx="64.92" cy="583.5" r="14.41" style="fill:url(#a)"/><polygon points="64.92 583.5 114.72 554.75 114.72 497.25 64.92 468.5 15.13 497.25 15.13 554.75 64.92 583.5" style="fill:url(#a)"/><line x1="15.12" y1="497.25" x2="114.71" y2="554.75" style="fill:url(#a)"/><line x1="15.12" y1="497.25" x2="114.71" y2="554.75" style="fill:url(#a)"/><line x1="64.92" y1="468.5" x2="64.92" y2="583.5" style="fill:url(#m)"/><line x1="114.71" y1="497.25" x2="15.12" y2="554.75" style="fill:url(#a)"/><polygon points="64.92 468.56 15.16 554.75 114.68 554.75 64.92 468.56" style="fill:url(#a)"/><circle cx="15.12" cy="497.25" r="14.41" style="fill:none;stroke:#46ffaa;stroke-linejoin:round;stroke-width:1.4376026391983px"/><circle cx="15.12" cy="554.75" r="14.41" style="fill:none;stroke:#46ffaa;stroke-linejoin:round;stroke-width:1.4376026391983px"/><circle cx="114.71" cy="497.25" r="14.41" style="fill:none;stroke:#46ffaa;stroke-linejoin:round;stroke-width:1.4376026391983px"/><circle cx="114.71" cy="554.75" r="14.41" style="fill:none;stroke:#46ffaa;stroke-linejoin:round;stroke-width:1.4376026391983px"/><circle cx="64.92" cy="526" r="24.9" style="fill:none;stroke:#46ffaa;stroke-linejoin:round;stroke-width:1.4376026391983px"/><circle cx="86.31" cy="513.67" r="24.9" style="fill:none;stroke:#46ffaa;stroke-linejoin:round;stroke-width:1.4376026391983px"/><circle cx="43.78" cy="513.67" r="24.9" style="fill:none;stroke:#46ffaa;stroke-linejoin:round;stroke-width:1.4376026391983px"/><circle cx="64.92" cy="550.9" r="24.9" style="fill:none;stroke:#46ffaa;stroke-linejoin:round;stroke-width:1.4376026391983px"/><circle cx="64.92" cy="583.5" r="14.41" style="fill:none;stroke:#46ffaa;stroke-linejoin:round;stroke-width:1.4376026391983px"/><polygon points="64.92 583.5 114.72 554.75 114.72 497.25 64.92 468.5 15.13 497.25 15.13 554.75 64.92 583.5" style="fill:none;stroke:#46ffaa;stroke-linejoin:round;stroke-width:1.4376026391983px"/><line x1="15.12" y1="497.25" x2="114.71" y2="554.75" style="fill:none;stroke:#46ffaa;stroke-linejoin:round;stroke-width:1.4376026391983px"/><line x1="15.12" y1="497.25" x2="114.71" y2="554.75" style="fill:none;stroke:#46ffaa;stroke-linejoin:round;stroke-width:1.4376026391983px"/><line x1="64.92" y1="468.5" x2="64.92" y2="583.5" style="fill:none;stroke:#46ffaa;stroke-linejoin:round;stroke-width:1.4376026391983px"/><line x1="114.71" y1="497.25" x2="15.12" y2="554.75" style="fill:none;stroke:#46ffaa;stroke-linejoin:round;stroke-width:1.4376026391983px"/><polygon points="64.92 468.56 15.16 554.75 114.68 554.75 64.92 468.56" style="fill:none;stroke:#46ffaa;stroke-linejoin:round;stroke-width:1.4376026391983px"/><circle cx="64.92" cy="15.12" r="14.41" style="fill:url(#p)"/><circle cx="64.92" cy="15.12" r="14.41" style="fill:none;stroke:#46ffaa;stroke-linejoin:round;stroke-width:1.4376026391983px"/><line x1="64.8" y1="29.53" x2="64.8" y2="31.69" style="fill:none;stroke:#46ffaa;stroke-linejoin:round;stroke-width:1.4376026391983px"/><line x1="64.8" y1="35.91" x2="64.8" y2="44.38" style="fill:none;stroke:#46ffaa;stroke-linejoin:round;stroke-width:1.4376026391983px;stroke-dasharray:0.019622357562184334,4.221561908721924,4.231372833251953,0"/><line x1="64.8" y1="44.38" x2="64.8" y2="467.52" style="fill:none;stroke:#46ffaa;stroke-linejoin:round;stroke-width:1.4376026391983px;stroke-dasharray:4.231372833251953,4.221561908721924,0.019622357562184334,4.221561908721924,4.231372833251953,0"/><line x1="64.8" y1="467.52" x2="64.8" y2="469.68" style="fill:none;stroke:#46ffaa;stroke-linejoin:round;stroke-width:1.4376026391983px"/></svg>