<svg xmlns="http://www.w3.org/2000/svg" xmlns:xlink="http://www.w3.org/1999/xlink" viewBox="0 0 129.84 145.18"><defs><radialGradient id="a" cx="69.69" cy="79.04" r="58.27" gradientUnits="userSpaceOnUse"><stop offset="0" stop-color="#46ffaa" stop-opacity="0"/><stop offset="0.23" stop-color="#46ffaa" stop-opacity="0.01"/><stop offset="0.42" stop-color="#46ffaa" stop-opacity="0.05"/><stop offset="0.6" stop-color="#46ffaa" stop-opacity="0.12"/><stop offset="0.77" stop-color="#46ffaa" stop-opacity="0.22"/><stop offset="0.93" stop-color="#46ffaa" stop-opacity="0.34"/><stop offset="1" stop-color="#46ffaa" stop-opacity="0.4"/></radialGradient><radialGradient id="n" cx="64.92" cy="72.56" r="40.66" xlink:href="#a"/></defs><title>ev-group</title><circle cx="15.12" cy="43.81" r="14.41" style="fill:url(#a)"/><circle cx="15.12" cy="101.31" r="14.41" style="fill:url(#a)"/><circle cx="114.71" cy="43.81" r="14.41" style="fill:url(#a)"/><circle cx="114.71" cy="101.31" r="14.41" style="fill:url(#a)"/><circle cx="64.92" cy="15.12" r="14.41" style="fill:url(#a)"/><circle cx="64.92" cy="72.56" r="24.9" style="fill:url(#a)"/><circle cx="86.31" cy="60.24" r="24.9" style="fill:url(#a)"/><circle cx="43.78" cy="60.24" r="24.9" style="fill:url(#a)"/><circle cx="64.92" cy="97.46" r="24.9" style="fill:url(#a)"/><circle cx="64.92" cy="130.06" r="14.41" style="fill:url(#a)"/><polygon points="64.92 130.06 114.72 101.31 114.72 43.81 64.92 15.06 15.13 43.81 15.13 101.31 64.92 130.06" style="fill:url(#a)"/><line x1="15.12" y1="43.81" x2="114.71" y2="101.31" style="fill:url(#a)"/><line x1="15.12" y1="43.81" x2="114.71" y2="101.31" style="fill:url(#a)"/><line x1="64.92" y1="15.06" x2="64.92" y2="130.06" style="fill:url(#n)"/><line x1="114.71" y1="43.81" x2="15.12" y2="101.31" style="fill:url(#a)"/><polygon points="64.92 15.13 15.16 101.31 114.68 101.31 64.92 15.13" style="fill:url(#a)"/><circle cx="15.12" cy="43.81" r="14.41" style="fill:none;stroke:#46ffaa;stroke-linejoin:round;stroke-width:1.4376026391983px"/><circle cx="15.12" cy="101.31" r="14.41" style="fill:none;stroke:#46ffaa;stroke-linejoin:round;stroke-width:1.4376026391983px"/><circle cx="114.71" cy="43.81" r="14.41" style="fill:none;stroke:#46ffaa;stroke-linejoin:round;stroke-width:1.4376026391983px"/><circle cx="114.71" cy="101.31" r="14.41" style="fill:none;stroke:#46ffaa;stroke-linejoin:round;stroke-width:1.4376026391983px"/><circle cx="64.92" cy="15.12" r="14.41" style="fill:none;stroke:#46ffaa;stroke-linejoin:round;stroke-width:1.4376026391983px"/><circle cx="64.92" cy="72.56" r="24.9" style="fill:none;stroke:#46ffaa;stroke-linejoin:round;stroke-width:1.4376026391983px"/><circle cx="86.31" cy="60.24" r="24.9" style="fill:none;stroke:#46ffaa;stroke-linejoin:round;stroke-width:1.4376026391983px"/><circle cx="43.78" cy="60.24" r="24.9" style="fill:none;stroke:#46ffaa;stroke-linejoin:round;stroke-width:1.4376026391983px"/><circle cx="64.92" cy="97.46" r="24.9" style="fill:none;stroke:#46ffaa;stroke-linejoin:round;stroke-width:1.4376026391983px"/><circle cx="64.92" cy="130.06" r="14.41" style="fill:none;stroke:#46ffaa;stroke-linejoin:round;stroke-width:1.4376026391983px"/><polygon points="64.92 130.06 114.72 101.31 114.72 43.81 64.92 15.06 15.13 43.81 15.13 101.31 64.92 130.06" style="fill:none;stroke:#46ffaa;stroke-linejoin:round;stroke-width:1.4376026391983px"/><line x1="15.12" y1="43.81" x2="114.71" y2="101.31" style="fill:none;stroke:#46ffaa;stroke-linejoin:round;stroke-width:1.4376026391983px"/><line x1="15.12" y1="43.81" x2="114.71" y2="101.31" style="fill:none;stroke:#46ffaa;stroke-linejoin:round;stroke-width:1.4376026391983px"/><line x1="64.92" y1="15.06" x2="64.92" y2="130.06" style="fill:none;stroke:#46ffaa;stroke-linejoin:round;stroke-width:1.4376026391983px"/><line x1="114.71" y1="43.81" x2="15.12" y2="101.31" style="fill:none;stroke:#46ffaa;stroke-linejoin:round;stroke-width:1.4376026391983px"/><polygon points="64.92 15.13 15.16 101.31 114.68 101.31 64.92 15.13" style="fill:none;stroke:#46ffaa;stroke-linejoin:round;stroke-width:1.4376026391983px"/></svg>