<svg xmlns="http://www.w3.org/2000/svg" xmlns:xlink="http://www.w3.org/1999/xlink" viewBox="0 0 690.88 185.6"><defs><radialGradient id="a" cx="86.78" cy="87.01" r="105.67" gradientTransform="translate(18.98 10.21) scale(0.94 0.94)" gradientUnits="userSpaceOnUse"><stop offset="0" stop-color="#6db2ff" stop-opacity="0"/><stop offset="1" stop-color="#6db2ff" stop-opacity="0.5"/></radialGradient></defs><title>EV</title><path d="M240.79,63.43H213.58a4.78,4.78,0,0,0-4.77,4.77h0c0,.13,0,.25,0,.38s0,.24,0,.37v49a4.77,4.77,0,0,0,4.77,4.76h27.14a4.76,4.76,0,0,0,4.76-4.76v0a4.77,4.77,0,0,0-4.76-4.77H224.13a4.77,4.77,0,0,1-4.77-4.76v-5.54A4.75,4.75,0,0,1,223,98.24h17.69a4.77,4.77,0,0,0,4.76-4.77h0v-.13a4.76,4.76,0,0,0-4.78-4.76l-17.18.06a4.75,4.75,0,0,1-4.16-4.7V78.39a4.78,4.78,0,0,1,4.77-4.77h16.59a4.75,4.75,0,0,0,4.73-4.42,4.59,4.59,0,0,0,.1-1v0A4.77,4.77,0,0,0,240.79,63.43Z" style="fill:#46ffaa"/><path d="M277.3,82.8a4.13,4.13,0,0,0-3.78-2.47H272a4.11,4.11,0,0,0-3.79,2.49L253.47,117a4.12,4.12,0,0,0,3.78,5.75h2.09a4.19,4.19,0,0,0,1.64-.34l14.09-6.12a7,7,0,0,1,9.31,3.85,4.1,4.1,0,0,0,3.83,2.61h.16a4.12,4.12,0,0,0,3.78-5.76ZM276,107.43l-4.23,1.85a3.22,3.22,0,0,1-4.3-4.09L270,98.71a3.16,3.16,0,0,1,3-2.08h0a3.17,3.17,0,0,1,3,2.07l1.78,4.62A3.21,3.21,0,0,1,276,107.43Z" style="fill:#46ffaa"/><path d="M321.94,104.2a14.91,14.91,0,0,0,2.25-1A10.25,10.25,0,0,0,328,99.27a13.45,13.45,0,0,0,1.4-6.55,12.51,12.51,0,0,0-1.31-6,10.63,10.63,0,0,0-3.52-3.85,15.08,15.08,0,0,0-5.05-2,28.9,28.9,0,0,0-5.86-.59H299.5a2.2,2.2,0,0,0-1.89,3.32l7.52,12.67a1.32,1.32,0,0,1,0,1.32,1.29,1.29,0,0,1-1.13.65h0l-2.51,0a2.15,2.15,0,0,0-1.57.64,2.21,2.21,0,0,0-.65,1.56v20a2.2,2.2,0,0,0,2.2,2.2h3.88a2.19,2.19,0,0,0,2.2-2.2V106.78a1.31,1.31,0,0,1,1.31-1.31H310a1.3,1.3,0,0,1,1.12.65L320,121.61a2.21,2.21,0,0,0,1.91,1.1h5.18a2.21,2.21,0,0,0,1.9-3.31l-7.79-13.32a1.28,1.28,0,0,1-.1-1.08A1.31,1.31,0,0,1,321.94,104.2Zm-1.17-11.36a4.83,4.83,0,0,1-.82,3,5,5,0,0,1-2.15,1.62l-.4.15a1.32,1.32,0,0,1-1.57-.55l-4.58-7.6a1.31,1.31,0,0,1,1.12-2,26.06,26.06,0,0,1,3,.18,8.4,8.4,0,0,1,2.72.75A5,5,0,0,1,320,90,4.77,4.77,0,0,1,320.77,92.84Z" style="fill:#46ffaa"/><path d="M364.24,80.33H338.11a3.79,3.79,0,1,0,0,7.57h6A2.9,2.9,0,0,1,347,90.8v28.12a3.79,3.79,0,0,0,3.79,3.79h.7a3.79,3.79,0,0,0,3.79-3.79V90.8a2.9,2.9,0,0,1,2.89-2.9h6a3.79,3.79,0,1,0,0-7.57Z" style="fill:#46ffaa"/><path d="M404.76,80.33a4.14,4.14,0,0,0-4.14,4.14v9.14a3.24,3.24,0,0,1-3.24,3.24h-12a3.25,3.25,0,0,1-3.25-3.24V84.47a4.14,4.14,0,1,0-8.27,0v34.1a4.14,4.14,0,1,0,8.27,0v-10.9a3.25,3.25,0,0,1,3.25-3.24h12a3.24,3.24,0,0,1,3.24,3.24v10.9a4.14,4.14,0,0,0,8.28,0V84.47A4.14,4.14,0,0,0,404.76,80.33Z" style="fill:#46ffaa"/><path d="M458.13,63.79a5.24,5.24,0,0,0-4.9,3.4l-10.42,28a5.22,5.22,0,0,1-9.81,0L422.93,67.24A5.24,5.24,0,0,0,418,63.79h-.8a5.24,5.24,0,0,0-4.87,7.14l19.17,48.81a5.24,5.24,0,0,0,4.87,3.32h2a5.23,5.23,0,0,0,4.85-3.27L463,71A5.22,5.22,0,0,0,458.13,63.79Z" style="fill:#46ffaa"/><path d="M477.2,88.2h11.61a3.78,3.78,0,0,0,3.75-3.33,3.84,3.84,0,0,0,.08-.76,3.78,3.78,0,0,0-3.78-3.78H469.81A3.78,3.78,0,0,0,466,84.11h0v34.81a3.79,3.79,0,0,0,3.78,3.78h19a3.79,3.79,0,0,0,0-7.58H477.2a2.88,2.88,0,0,1-2.89-2.88v-3.88a2.89,2.89,0,0,1,2.89-2.89h11.61a3.79,3.79,0,0,0,3.78-3.78v-.07a3.79,3.79,0,0,0-3.78-3.78H477.2A2.89,2.89,0,0,1,474.31,95V91.09A2.89,2.89,0,0,1,477.2,88.2Z" style="fill:#46ffaa"/><path d="M534.15,112.85l-.79-.57a3.68,3.68,0,0,0-4.64.3,11.43,11.43,0,0,1-2.59,1.84,10.25,10.25,0,0,1-4.69,1.15,13.77,13.77,0,0,1-5.65-1.13,13.12,13.12,0,0,1-4.33-3.12,13.89,13.89,0,0,1-2.81-4.71,17.57,17.57,0,0,1-1-6,15.82,15.82,0,0,1,1-5.64,13.79,13.79,0,0,1,2.81-4.57,12.86,12.86,0,0,1,4.33-3.06,14.06,14.06,0,0,1,5.65-1.11,11.66,11.66,0,0,1,4.15.79,9.52,9.52,0,0,1,2.55,1.55,3.63,3.63,0,0,0,4.47.08l.47-.34a3.69,3.69,0,0,0,.1-5.88,16.47,16.47,0,0,0-3.8-2.24,20.69,20.69,0,0,0-8-1.53,24.84,24.84,0,0,0-9,1.58,20.42,20.42,0,0,0-7.06,4.52,20.8,20.8,0,0,0-4.65,7.1,24.61,24.61,0,0,0-1.67,9.22,23.6,23.6,0,0,0,1.67,9,20.33,20.33,0,0,0,11.71,11.47,24.84,24.84,0,0,0,9,1.58,22,22,0,0,0,8.8-1.79,16.68,16.68,0,0,0,4.25-2.71,3.72,3.72,0,0,0,1.27-3A3.64,3.64,0,0,0,534.15,112.85Z" style="fill:#46ffaa"/><path d="M569.65,80.33H543.52a3.79,3.79,0,1,0,0,7.57h6a2.9,2.9,0,0,1,2.9,2.9v28.12a3.79,3.79,0,0,0,3.79,3.79h.7a3.79,3.79,0,0,0,3.79-3.79V90.8a2.89,2.89,0,0,1,2.89-2.9h6a3.79,3.79,0,1,0,0-7.57Z" style="fill:#46ffaa"/><path d="M613.36,84.59a20.25,20.25,0,0,0-7.14-4.47,25,25,0,0,0-8.69-1.46,25.72,25.72,0,0,0-9.35,1.58,20.58,20.58,0,0,0-7.07,4.53,20.84,20.84,0,0,0-4.64,7.09,24.61,24.61,0,0,0-1.67,9.22,23.64,23.64,0,0,0,1.67,9,20.74,20.74,0,0,0,4.65,7,20.52,20.52,0,0,0,7.06,4.5,24.82,24.82,0,0,0,9,1.58,25.28,25.28,0,0,0,9.07-1.7,21.47,21.47,0,0,0,7.12-4.58,21,21,0,0,0,4.67-7,23.55,23.55,0,0,0,1.67-9,24.39,24.39,0,0,0-1.67-9.2A20.92,20.92,0,0,0,613.36,84.59Zm-2.29,16a17.57,17.57,0,0,1-1,6,13.89,13.89,0,0,1-2.81,4.71,12.94,12.94,0,0,1-4.36,3.12,13.91,13.91,0,0,1-5.68,1.13,13.7,13.7,0,0,1-5.65-1.13,13,13,0,0,1-4.33-3.12,13.89,13.89,0,0,1-2.81-4.71,17.57,17.57,0,0,1-1-6,15.6,15.6,0,0,1,1-5.64,13.93,13.93,0,0,1,2.8-4.57,13,13,0,0,1,4.34-3.06,14.06,14.06,0,0,1,5.65-1.11,14.25,14.25,0,0,1,5.68,1.11,12.78,12.78,0,0,1,4.36,3.06A13.79,13.79,0,0,1,610.07,95,15.64,15.64,0,0,1,611.07,100.61Z" style="fill:#46ffaa"/><path d="M647.6,104.2a14.58,14.58,0,0,0,2.26-1,10.29,10.29,0,0,0,3.8-3.89,13.45,13.45,0,0,0,1.4-6.55,12.51,12.51,0,0,0-1.31-6,10.62,10.62,0,0,0-3.52-3.85,14.94,14.94,0,0,0-5-2,29.07,29.07,0,0,0-5.87-.59H625.17a2.16,2.16,0,0,0-1.91,1.11,2.18,2.18,0,0,0,0,2.21l7.52,12.67a1.3,1.3,0,0,1-1.12,2h0l-2.52,0a2.25,2.25,0,0,0-1.56.64,2.17,2.17,0,0,0-.65,1.56v20a2.19,2.19,0,0,0,2.2,2.2H631a2.2,2.2,0,0,0,2.2-2.2V106.78a1.31,1.31,0,0,1,1.3-1.31h1.11a1.33,1.33,0,0,1,1.13.65l9,15.49a2.2,2.2,0,0,0,1.9,1.1h5.18a2.18,2.18,0,0,0,1.91-1.1,2.21,2.21,0,0,0,0-2.21l-7.78-13.32a1.21,1.21,0,0,1-.1-1.08A1.3,1.3,0,0,1,647.6,104.2Zm-1.17-11.36a4.83,4.83,0,0,1-.81,3,5.13,5.13,0,0,1-2.16,1.62l-.39.15a1.33,1.33,0,0,1-1.58-.55l-4.58-7.6a1.31,1.31,0,0,1,1.12-2,25.93,25.93,0,0,1,3,.18,8.46,8.46,0,0,1,2.73.75A5,5,0,0,1,645.69,90,4.77,4.77,0,0,1,646.43,92.84Z" style="fill:#46ffaa"/><path d="M686.62,103.29a12.2,12.2,0,0,0-3.77-3.7A19.72,19.72,0,0,0,678,97.43c-1.69-.5-3.28-1-4.71-1.58A13.52,13.52,0,0,1,669.76,94a3.32,3.32,0,0,1-1.29-2.86,4.29,4.29,0,0,1,1.94-3.73,6.51,6.51,0,0,1,2-.88,10.7,10.7,0,0,1,6.34.48,6.54,6.54,0,0,1,1,.5,4,4,0,0,0,5-.58l.21-.22a4.06,4.06,0,0,0,1-3.51,3.9,3.9,0,0,0-2.19-2.83,16.19,16.19,0,0,0-1.72-.68,21.6,21.6,0,0,0-12.24-.24,15.54,15.54,0,0,0-5,2.39,12.52,12.52,0,0,0-3.58,4,11.58,11.58,0,0,0-1.38,5.78,11,11,0,0,0,1.54,6.14,12,12,0,0,0,3.77,3.65,20.35,20.35,0,0,0,4.85,2.13c1.69.5,3.28,1,4.71,1.6a12.38,12.38,0,0,1,3.51,2,3.89,3.89,0,0,1,1.31,3.18,4.42,4.42,0,0,1-.58,2.26,5,5,0,0,1-1.57,1.64,7.79,7.79,0,0,1-2.21,1,9.44,9.44,0,0,1-6.91-.76,9.13,9.13,0,0,1-1.43-.91,4,4,0,0,0-5.21.28l-.29.28a4,4,0,0,0-1.2,3.26,3.8,3.8,0,0,0,1.69,2.87,14.48,14.48,0,0,0,3.12,1.57,22.12,22.12,0,0,0,7.59,1.32,20.63,20.63,0,0,0,5.93-.84,14.8,14.8,0,0,0,5-2.54,12.34,12.34,0,0,0,3.43-4.28,13.49,13.49,0,0,0,1.28-6A11.14,11.14,0,0,0,686.62,103.29Z" style="fill:#46ffaa"/><path d="M219.61,26.6a3.24,3.24,0,0,0-3.13-2.4h-18a3.24,3.24,0,0,0,0,6.47h6L178.77,45.48,104.89,2.83a3.22,3.22,0,0,0-3.23,0L47.64,34a25,25,0,1,0-23.1,40v62.36s0,.08,0,.12a2.8,2.8,0,0,0,.08.58,1.55,1.55,0,0,0,0,.21,3.24,3.24,0,0,0,.29.7,3.78,3.78,0,0,0,.53.68,2.92,2.92,0,0,0,.48.37l.18.14h0l75.47,43.57.12.05a3.71,3.71,0,0,0,.65.27,3.46,3.46,0,0,0,.84.11,3.4,3.4,0,0,0,.84-.11,3.81,3.81,0,0,0,.66-.27l.12-.05,75.49-43.59a3.23,3.23,0,0,0,1.62-2.8V51.08l36.1-20.84A3.24,3.24,0,0,0,219.61,26.6Z" style="fill:url(#a)"/><path d="M219.61,26.6a3.24,3.24,0,0,0-3.13-2.4h-18a3.24,3.24,0,0,0,0,6.47h6L178.77,45.48,104.89,2.83a3.22,3.22,0,0,0-3.23,0L47.64,34a25,25,0,1,0-23.1,40v62.36s0,.08,0,.12a2.8,2.8,0,0,0,.08.58,1.55,1.55,0,0,0,0,.21,3.24,3.24,0,0,0,.29.7,3.78,3.78,0,0,0,.53.68,2.92,2.92,0,0,0,.48.37l.18.14h0l75.47,43.57.12.05a3.71,3.71,0,0,0,.65.27,3.46,3.46,0,0,0,.84.11,3.4,3.4,0,0,0,.84-.11,3.81,3.81,0,0,0,.66-.27l.12-.05,75.49-43.59a3.23,3.23,0,0,0,1.62-2.8V51.08l36.1-20.84A3.24,3.24,0,0,0,219.61,26.6ZM91.2,52.45,63.91,68.21A3.22,3.22,0,0,0,62.29,71v31.51L43,69.08A25,25,0,0,0,52.6,52.45Zm46.59,24.16v36.12l-34.52,19.92L72,114.59ZM68.76,109V72.87L103.27,53,134.55,71ZM141,67.27,115.34,52.45H166.7ZM39.72,63.43l-6.34-11H46.06A18.57,18.57,0,0,1,39.72,63.43ZM39.85,46l5.37-3.1a17.7,17.7,0,0,1,.84,3.1ZM34.12,66.66a18,18,0,0,1-3.11.83V61.28Zm3.28,5.68,23.71,41.07L31,130.78V74A24.88,24.88,0,0,0,37.4,72.34ZM64.34,119l30.1,52.13L34.25,136.39Zm10,4.42,27.3,15.76a3.19,3.19,0,0,0,1.61.43,3.22,3.22,0,0,0,1.62-.43l27.29-15.76L103.27,173.5Zm69.9-50.56,25.67-14.82-25.67,44.47Zm-41-63.51L166.7,46H52.6a24.71,24.71,0,0,0-1.7-6.38ZM9.2,49.21A18.56,18.56,0,0,1,42,37.27L26.16,46.41l0,0a3.68,3.68,0,0,0-.63.49,3.27,3.27,0,0,0-.84,1.45,3.32,3.32,0,0,0-.11.83V67.49A18.59,18.59,0,0,1,9.2,49.21ZM112.11,171.14l31.71-54.93h0l31.71-54.93v73.24Z" style="fill:#6db2ff"/></svg>