<svg xmlns="http://www.w3.org/2000/svg" xmlns:xlink="http://www.w3.org/1999/xlink" viewBox="0 0 470.93 613.1"><defs><radialGradient id="a" cx="31.41" cy="600.46" r="14.04" gradientUnits="userSpaceOnUse"><stop offset="0.02" stop-color="#6db2ff" stop-opacity="0.1"/><stop offset="1" stop-color="#46ffaa" stop-opacity="0.4"/></radialGradient><radialGradient id="b" cx="-285.09" cy="64.55" r="14.04" gradientTransform="translate(478.39 155.42) rotate(11.48)" xlink:href="#a"/><radialGradient id="c" cx="-1725.64" cy="228.9" r="9.82" gradientTransform="translate(1393.04 1069.33) rotate(45)" gradientUnits="userSpaceOnUse"><stop offset="0" stop-color="#6db2ff" stop-opacity="0.1"/><stop offset="1" stop-color="#46ffaa" stop-opacity="0.4"/></radialGradient><radialGradient id="d" cx="-1160.23" cy="159.35" r="9.82" xlink:href="#c"/><radialGradient id="e" cx="393.98" cy="88.37" r="8.6" gradientTransform="matrix(1, 0, 0, 1, 0, 0)" xlink:href="#c"/><radialGradient id="f" cx="261.7" cy="462.68" r="8.6" gradientTransform="matrix(1, 0, 0, 1, 0, 0)" xlink:href="#c"/><linearGradient id="g" x1="20.12" y1="304.79" x2="390.31" y2="304.79" gradientUnits="userSpaceOnUse"><stop offset="0" stop-color="#6db2ff" stop-opacity="0"/><stop offset="1" stop-color="#46ffaa" stop-opacity="0.4"/></linearGradient><linearGradient id="h" x1="300.01" y1="304.53" x2="233.04" y2="438.47" xlink:href="#g"/><radialGradient id="i" cx="-1418.54" cy="181.42" r="9.82" xlink:href="#c"/><linearGradient id="j" x1="235.52" y1="349.67" x2="89.63" y2="349.19" xlink:href="#g"/><radialGradient id="k" cx="428.66" cy="508.33" r="14.04" xlink:href="#a"/><radialGradient id="l" cx="75.48" cy="281.76" r="8.6" gradientTransform="matrix(1, 0, 0, 1, 0, 0)" xlink:href="#c"/></defs><title>ev-lines</title><polygon points="24.01 590.65 26.25 611.94 43.57 599.35 24.01 590.65" style="fill:url(#a)"/><polygon points="24.01 590.65 26.25 611.94 43.57 599.35 24.01 590.65" style="fill:none;stroke:#209d75;stroke-linejoin:round;stroke-width:2.31514986299078px"/><polygon points="180.85 150.83 178.81 172.14 198.29 163.26 180.85 150.83" style="fill:url(#b)"/><polygon points="180.85 150.83 178.81 172.14 198.29 163.26 180.85 150.83" style="fill:none;stroke:#209d75;stroke-linejoin:round;stroke-width:2.31514986299078px"/><circle cx="10.97" cy="10.97" r="9.82" style="fill:url(#c)"/><circle cx="10.97" cy="10.97" r="9.82" style="fill:none;stroke:#209d75;stroke-linejoin:round;stroke-width:2.31514986299078px"/><circle cx="459.96" cy="361.6" r="9.82" style="fill:url(#d)"/><circle cx="459.96" cy="361.6" r="9.82" style="fill:none;stroke:#209d75;stroke-linejoin:round;stroke-width:2.31514986299078px"/><polyline points="393.98 97.56 401.94 92.97 401.94 83.77 393.98 79.18 386.02 83.77 386.02 92.97 393.98 97.56" style="fill:url(#e)"/><polygon points="393.98 97.56 401.94 92.97 401.94 83.77 393.98 79.18 386.02 83.77 386.02 92.97 393.98 97.56" style="fill:none;stroke:#209d75;stroke-linejoin:round;stroke-width:2.31514986299078px"/><polyline points="261.7 471.87 269.67 467.27 269.67 458.08 261.7 453.49 253.74 458.08 253.74 467.27 261.7 471.87" style="fill:url(#f)"/><polygon points="261.7 471.87 269.67 467.27 269.67 458.08 261.7 453.49 253.74 458.08 253.74 467.27 261.7 471.87" style="fill:none;stroke:#209d75;stroke-linejoin:round;stroke-width:2.31514986299078px"/><polyline points="33.86 595.03 390.31 95.44 386.02 86.16 20.12 14.55" style="fill:url(#g)"/><line x1="20.12" y1="14.55" x2="386.02" y2="86.16" style="fill:none;stroke:#209d75;stroke-linejoin:round;stroke-width:2.31514986299078px"/><line x1="390.31" y1="95.44" x2="33.86" y2="595.03" style="fill:none;stroke:#209d75;stroke-linejoin:round;stroke-width:2.31514986299078px"/><polyline points="450.14 366.64 269.67 460.98 258.21 455.5 187.97 166.25" style="fill:url(#h)"/><line x1="187.96" y1="166.25" x2="258.21" y2="455.5" style="fill:none;stroke:#209d75;stroke-linejoin:round;stroke-width:2.31514986299078px"/><line x1="450.14" y1="366.64" x2="269.67" y2="460.98" style="fill:none;stroke:#209d75;stroke-linejoin:round;stroke-width:2.31514986299078px"/><circle cx="261.7" cy="194.56" r="9.82" style="fill:url(#i)"/><circle cx="261.7" cy="194.56" r="9.82" style="fill:none;stroke:#209d75;stroke-linejoin:round;stroke-width:2.31514986299078px"/><polyline points="254.76 201.5 83.51 281.63 421.25 498.52" style="fill:url(#j)"/><polyline points="254.76 201.5 83.51 281.63 421.25 498.52" style="fill:none;stroke:#209d75;stroke-linejoin:round;stroke-width:2.31514986299078px"/><polygon points="421.25 498.52 423.49 519.81 440.81 507.22 421.25 498.52" style="fill:url(#k)"/><polygon points="421.25 498.52 423.49 519.81 440.81 507.22 421.25 498.52" style="fill:none;stroke:#209d75;stroke-linejoin:round;stroke-width:2.31514986299078px"/><polyline points="75.48 290.95 83.44 286.36 83.44 277.16 75.48 272.57 67.52 277.16 67.52 286.36 75.48 290.95" style="fill:url(#l)"/><polygon points="75.48 290.95 83.44 286.36 83.44 277.16 75.48 272.57 67.52 277.16 67.52 286.36 75.48 290.95" style="fill:none;stroke:#209d75;stroke-linejoin:round;stroke-width:2.31514986299078px"/></svg>