<svg xmlns="http://www.w3.org/2000/svg" viewBox="0 0 640 640"><title>ev-logo-stacked</title><path d="M59.3,482H25.14a6,6,0,0,0-6,6v0c0,.16,0,.31,0,.46s0,.31,0,.47v61.49a6,6,0,0,0,6,6H59.21a6,6,0,0,0,6-6v0a6,6,0,0,0-6-6H38.38a6,6,0,0,1-6-6v-6.95a6,6,0,0,1,4.6-5.81H59.21a6,6,0,0,0,6-6v0s0,0,0-.08,0,0,0-.07a6,6,0,0,0-6-6l-21.56.07a6,6,0,0,1-5.22-5.9v-6.95a6,6,0,0,1,6-6H59.21a6,6,0,0,0,5.93-5.56,5.52,5.52,0,0,0,.13-1.23v0A6,6,0,0,0,59.3,482Z" style="fill:#1b252d"/><path d="M105.12,506.26a5.16,5.16,0,0,0-4.74-3.11h-2a5.16,5.16,0,0,0-4.74,3.12L75.2,549.13A5.17,5.17,0,0,0,80,556.35h2.63a5,5,0,0,0,2.06-.43l17.68-7.68A8.8,8.8,0,0,1,114,553.08a5.14,5.14,0,0,0,4.81,3.27h.2a5.16,5.16,0,0,0,4.74-7.23Zm-1.58,30.92-5.31,2.31a4,4,0,0,1-5.4-5.14l3.07-8.12a4,4,0,0,1,3.78-2.61h0a4,4,0,0,1,3.77,2.59L105.7,532A4,4,0,0,1,103.54,537.18Z" style="fill:#1b252d"/><path d="M161.16,533.11a17.31,17.31,0,0,0,2.83-1.3,12.74,12.74,0,0,0,4.77-4.89,16.77,16.77,0,0,0,1.76-8.21,15.58,15.58,0,0,0-1.65-7.52,13.26,13.26,0,0,0-4.41-4.83,18.59,18.59,0,0,0-6.34-2.55,36.24,36.24,0,0,0-7.36-.74H133a2.76,2.76,0,0,0-2.37,4.16l9.43,15.91a1.64,1.64,0,0,1-1.41,2.47h0l-3.15,0a2.66,2.66,0,0,0-2,.8,2.71,2.71,0,0,0-.82,2V553.5a2.77,2.77,0,0,0,2.76,2.77h4.87a2.77,2.77,0,0,0,2.77-2.77V536.35a1.64,1.64,0,0,1,1.63-1.64h1.39a1.65,1.65,0,0,1,1.42.82L158.76,555a2.77,2.77,0,0,0,2.39,1.38h6.5A2.76,2.76,0,0,0,170,552.2l-9.77-16.72a1.61,1.61,0,0,1-.13-1.37A1.68,1.68,0,0,1,161.16,533.11Zm-1.47-14.26a6.09,6.09,0,0,1-1,3.78,6.45,6.45,0,0,1-2.7,2l-.5.19a1.66,1.66,0,0,1-2-.7l-5.75-9.54a1.58,1.58,0,0,1,0-1.64,1.61,1.61,0,0,1,1.42-.84,34.87,34.87,0,0,1,3.76.22,10.84,10.84,0,0,1,3.43.94,6.39,6.39,0,0,1,2.43,2A6,6,0,0,1,159.69,518.85Z" style="fill:#1b252d"/><path d="M214.25,503.15h-32.8a4.76,4.76,0,1,0,0,9.51H189a3.64,3.64,0,0,1,3.63,3.63V551.6a4.76,4.76,0,0,0,4.76,4.75h.88A4.75,4.75,0,0,0,203,551.6V516.29a3.64,3.64,0,0,1,3.63-3.63h7.58a4.76,4.76,0,1,0,0-9.51Z" style="fill:#1b252d"/><path d="M265.12,503.15a5.2,5.2,0,0,0-5.2,5.19v11.48a4.07,4.07,0,0,1-4.07,4.07H240.77a4.08,4.08,0,0,1-4.07-4.07V508.34a5.2,5.2,0,0,0-10.39,0v42.81a5.2,5.2,0,1,0,10.39,0V537.47a4.08,4.08,0,0,1,4.07-4.07h15.08a4.07,4.07,0,0,1,4.07,4.07v13.68a5.2,5.2,0,1,0,10.39,0V508.34A5.2,5.2,0,0,0,265.12,503.15Z" style="fill:#1b252d"/><path d="M332.11,482.39a6.56,6.56,0,0,0-6.15,4.28l-13.08,35.15a6.56,6.56,0,0,1-12.32-.06l-12.64-35a6.56,6.56,0,0,0-6.18-4.34h-1a6.57,6.57,0,0,0-6.11,9l24.06,61.28a6.57,6.57,0,0,0,6.11,4.16h2.55a6.56,6.56,0,0,0,6.09-4.1l24.76-61.28A6.57,6.57,0,0,0,332.11,482.39Z" style="fill:#1b252d"/><path d="M356,513h14.58a4.76,4.76,0,0,0,4.71-4.18,5,5,0,0,0,.09-1,4.75,4.75,0,0,0-4.74-4.75H346.77A4.75,4.75,0,0,0,342,507.9h0a2.65,2.65,0,0,1,0,.46V551.6a4.75,4.75,0,0,0,4.75,4.75h23.85a4.76,4.76,0,0,0,0-9.51H356a3.63,3.63,0,0,1-3.63-3.62v-4.87a3.64,3.64,0,0,1,3.63-3.63h14.58a4.75,4.75,0,0,0,4.74-4.74v-.09a4.75,4.75,0,0,0-4.74-4.74H356a3.64,3.64,0,0,1-3.63-3.63v-4.87A3.63,3.63,0,0,1,356,513Z" style="fill:#1b252d"/><path d="M427.53,544l-1-.71a4.63,4.63,0,0,0-5.82.37,14,14,0,0,1-3.25,2.31,12.81,12.81,0,0,1-5.88,1.45,17.23,17.23,0,0,1-7.09-1.42,16.42,16.42,0,0,1-5.44-3.91,17.5,17.5,0,0,1-3.53-5.92,22,22,0,0,1-1.25-7.53,19.81,19.81,0,0,1,1.25-7.08,17.42,17.42,0,0,1,3.52-5.74,16.37,16.37,0,0,1,5.44-3.84,17.6,17.6,0,0,1,7.1-1.39,14.46,14.46,0,0,1,5.2,1,11.76,11.76,0,0,1,3.2,1.94,4.59,4.59,0,0,0,5.62.1l.58-.43a4.63,4.63,0,0,0,.13-7.38,21.06,21.06,0,0,0-4.77-2.82,26.17,26.17,0,0,0-10-1.91,31.1,31.1,0,0,0-11.27,2,25.68,25.68,0,0,0-8.87,5.68,26.36,26.36,0,0,0-5.83,8.91,30.91,30.91,0,0,0-2.1,11.57,29.68,29.68,0,0,0,2.1,11.32,25.39,25.39,0,0,0,14.7,14.4,31.32,31.32,0,0,0,11.27,2,27.42,27.42,0,0,0,11-2.25,20.75,20.75,0,0,0,5.34-3.39,4.65,4.65,0,0,0-.35-7.29Z" style="fill:#1b252d"/><path d="M472.09,503.15h-32.8a4.76,4.76,0,1,0,0,9.51h7.57a3.64,3.64,0,0,1,3.64,3.63V551.6a4.75,4.75,0,0,0,4.75,4.75h.88a4.76,4.76,0,0,0,4.76-4.75V516.29a3.64,3.64,0,0,1,3.63-3.63h7.57a4.76,4.76,0,1,0,0-9.51Z" style="fill:#1b252d"/><path d="M527,508.5a25.23,25.23,0,0,0-9-5.61,31.44,31.44,0,0,0-10.92-1.84,32.69,32.69,0,0,0-11.73,2,25.82,25.82,0,0,0-8.87,5.68,26.26,26.26,0,0,0-5.83,8.91,30.91,30.91,0,0,0-2.1,11.57,29.71,29.71,0,0,0,2.1,11.32,25.39,25.39,0,0,0,14.7,14.4,31.12,31.12,0,0,0,11.28,2A31.83,31.83,0,0,0,518,554.77,26.84,26.84,0,0,0,527,549a26.21,26.21,0,0,0,5.86-8.79,29.52,29.52,0,0,0,2.1-11.32,30.48,30.48,0,0,0-2.1-11.54A25.91,25.91,0,0,0,527,508.5Zm-2.87,20.11a22,22,0,0,1-1.25,7.53,17.73,17.73,0,0,1-3.53,5.92,16.42,16.42,0,0,1-5.48,3.91,17.31,17.31,0,0,1-7.12,1.42,17.07,17.07,0,0,1-7.09-1.42,16.36,16.36,0,0,1-5.45-3.91,17.7,17.7,0,0,1-3.52-5.92,22,22,0,0,1-1.26-7.53,20,20,0,0,1,1.25-7.08,17.61,17.61,0,0,1,3.53-5.74A16.37,16.37,0,0,1,499.6,512a17.63,17.63,0,0,1,7.1-1.38,17.88,17.88,0,0,1,7.13,1.38,16.3,16.3,0,0,1,5.47,3.84,17.44,17.44,0,0,1,3.53,5.74A19.85,19.85,0,0,1,524.08,528.61Z" style="fill:#1b252d"/><path d="M569.94,533.11a17.77,17.77,0,0,0,2.83-1.3,12.74,12.74,0,0,0,4.77-4.89,16.77,16.77,0,0,0,1.76-8.21,15.58,15.58,0,0,0-1.65-7.52,13.17,13.17,0,0,0-4.41-4.83,18.59,18.59,0,0,0-6.34-2.55,36.24,36.24,0,0,0-7.36-.74H541.77a2.76,2.76,0,0,0-2.37,4.16l9.43,15.91a1.64,1.64,0,0,1-1.41,2.47h0l-3.15,0a2.78,2.78,0,0,0-2,.8,2.71,2.71,0,0,0-.82,2V553.5a2.77,2.77,0,0,0,2.77,2.77h4.86a2.77,2.77,0,0,0,2.77-2.77V536.35a1.64,1.64,0,0,1,1.63-1.64h1.39a1.65,1.65,0,0,1,1.42.82L567.54,555a2.79,2.79,0,0,0,2.4,1.38h6.5a2.76,2.76,0,0,0,2.38-4.15l-9.77-16.72a1.55,1.55,0,0,1-.12-1.36A1.63,1.63,0,0,1,569.94,533.11Zm-1.47-14.26a6.16,6.16,0,0,1-1,3.78,6.61,6.61,0,0,1-2.71,2c-.17.06-.33.13-.5.18a1.64,1.64,0,0,1-2-.69l-5.75-9.54a1.64,1.64,0,0,1,1.4-2.48,34.87,34.87,0,0,1,3.76.22,10.84,10.84,0,0,1,3.43.94,6.23,6.23,0,0,1,2.43,2A5.92,5.92,0,0,1,568.47,518.85Z" style="fill:#1b252d"/><path d="M618.91,532a15.45,15.45,0,0,0-4.73-4.66,25.24,25.24,0,0,0-6.1-2.71c-2.12-.62-4.11-1.29-5.91-2a17.28,17.28,0,0,1-4.42-2.35,4.18,4.18,0,0,1-1.62-3.59,5.53,5.53,0,0,1,.66-2.78,5.65,5.65,0,0,1,1.77-1.9,7.59,7.59,0,0,1,2.55-1.1,13.3,13.3,0,0,1,8,.6,8,8,0,0,1,1.24.62,5,5,0,0,0,6.24-.73l.26-.27a5.07,5.07,0,0,0,1.3-4.41,4.88,4.88,0,0,0-2.75-3.55,18.64,18.64,0,0,0-2.16-.85,27,27,0,0,0-15.37-.3,19.72,19.72,0,0,0-6.32,3,15.78,15.78,0,0,0-4.5,5.07,14.72,14.72,0,0,0-1.72,7.27,13.74,13.74,0,0,0,1.93,7.7,15.1,15.1,0,0,0,4.74,4.58,25.29,25.29,0,0,0,6.09,2.67c2.12.63,4.11,1.3,5.91,2a15.68,15.68,0,0,1,4.4,2.52,4.85,4.85,0,0,1,1.64,4,5.53,5.53,0,0,1-.73,2.84,6.32,6.32,0,0,1-2,2.06,9.61,9.61,0,0,1-2.78,1.25,12,12,0,0,1-10.46-2.09,5,5,0,0,0-6.54.35l-.37.36a5,5,0,0,0-1.51,4.09,4.82,4.82,0,0,0,2.12,3.6,18.45,18.45,0,0,0,3.92,2,27.89,27.89,0,0,0,9.53,1.65,26,26,0,0,0,7.44-1,18.53,18.53,0,0,0,6.26-3.19,15.51,15.51,0,0,0,4.31-5.38,17,17,0,0,0,1.6-7.56A14,14,0,0,0,618.91,532Z" style="fill:#1b252d"/><path d="M562.16,133.48a6.74,6.74,0,0,0-6.51-5H518.07a6.74,6.74,0,0,0,0,13.47h12.45l-53.38,30.82L323.37,84a6.76,6.76,0,0,0-6.74,0L204.2,148.91a52.1,52.1,0,1,0-48.08,83.3V362a2.19,2.19,0,0,0,0,.27,6.17,6.17,0,0,0,.16,1.21c0,.14.05.28.09.42a6.48,6.48,0,0,0,.62,1.47s.06.07.08.11a6.28,6.28,0,0,0,1,1.29,5.79,5.79,0,0,0,.93.72c.16.11.28.25.45.35l0,0h0l157.08,90.69a6.78,6.78,0,0,0,6.74,0l157.14-90.72a6.76,6.76,0,0,0,3.37-5.84V184.44L559,141.05A6.74,6.74,0,0,0,562.16,133.48Zm-267.29,53.8-56.81,32.8a6.75,6.75,0,0,0-3.36,5.83v65.6L194.5,221.9a52.06,52.06,0,0,0,20-34.62Zm97,50.3v75.17L320,354.23l-65.11-37.59ZM248.16,305V229.8L320,188.33l65.1,37.58Zm150.41-86.84-53.44-30.86H452Zm-210.85-8-13.2-22.86h26.39A38.64,38.64,0,0,1,187.72,210.14Zm.26-36.32,11.19-6.46a38.66,38.66,0,0,1,1.74,6.46Zm-11.93,43.05a39.65,39.65,0,0,1-6.46,1.74V205.68Zm6.82,11.82,49.36,85.49-62.64,36.16V232.21A51.8,51.8,0,0,0,182.87,228.69ZM239,325.84l62.64,108.5L176.32,362Zm20.86,9.2,56.81,32.8a6.76,6.76,0,0,0,6.74,0L380.18,335,320,439.27ZM405.31,229.8,458.75,199l-53.44,92.56ZM320,97.6l132,76.22H214.51A51.4,51.4,0,0,0,211,160.54Zm-195.82,83a38.65,38.65,0,0,1,68.27-24.86l-33,19a6.93,6.93,0,0,0-1.4,1.07,7.32,7.32,0,0,0-.87,1.14,2.48,2.48,0,0,0-.19.26c0,.05,0,.1-.07.16a6.93,6.93,0,0,0-.61,1.46,7,7,0,0,0-.19,1.44c0,.11,0,.2,0,.3v38.06A38.73,38.73,0,0,1,124.18,180.55ZM338.4,434.34,404.4,320h0l66-114.32V358.12Z" style="fill:#1b252d"/></svg>