
<svg width="340px" height="500px" viewBox="0 0 340 500" version="1.1" xmlns="http://www.w3.org/2000/svg" xmlns:xlink="http://www.w3.org/1999/xlink">
  <defs>
    <linearGradient x1="0%" y1="50%" x2="100%" y2="50%" id="linearGradient-1">
      <stop stop-color="#6DB2FF" stop-opacity="0" offset="0%"></stop>
      <stop stop-color="#46FFAA" stop-opacity="0.4" offset="100%"></stop>
    </linearGradient>
    <linearGradient x1="71.4391534%" y1="64.1357017%" x2="38.6957934%" y2="100%" id="linearGradient-2">
      <stop stop-color="#6DB2FF" stop-opacity="0" offset="0%"></stop>
      <stop stop-color="#5CD4D9" stop-opacity="0.177735916" offset="100%"></stop>
      <stop stop-color="#55E2CB" stop-opacity="0.246865968" offset="100%"></stop>
      <stop stop-color="#46FFAA" stop-opacity="0.4" offset="100%"></stop>
    </linearGradient>
    <radialGradient cx="-8505.19348%" cy="-16.904277%" fx="-8505.19348%" fy="-16.904277%" r="50%" id="radialGradient-3">
      <stop stop-color="#6DB2FF" stop-opacity="0.1" offset="0%"></stop>
      <stop stop-color="#46FFAA" stop-opacity="0.4" offset="100%"></stop>
    </radialGradient>
    <linearGradient x1="45.0079943%" y1="49.8855296%" x2="1.81204477%" y2="49.7239243%" id="linearGradient-4">
      <stop stop-color="#6DB2FF" stop-opacity="0" offset="0%"></stop>
      <stop stop-color="#46FFAA" stop-opacity="0.4" offset="100%"></stop>
    </linearGradient>
    <radialGradient cx="37.8834356%" cy="46.0779709%" fx="37.8834356%" fy="46.0779709%" r="71.7791411%" gradientTransform="translate(0.378834,0.460780),scale(1.000000,0.918741),translate(-0.378834,-0.460780)" id="radialGradient-5">
      <stop stop-color="#6DB2FF" stop-opacity="0.1" offset="2%"></stop>
      <stop stop-color="#46FFAA" stop-opacity="0.4" offset="100%"></stop>
    </radialGradient>
    <radialGradient cx="50%" cy="50%" fx="50%" fy="50%" r="54.0201005%" gradientTransform="translate(0.500000,0.500000),scale(1.000000,0.866159),translate(-0.500000,-0.500000)" id="radialGradient-6">
      <stop stop-color="#6DB2FF" stop-opacity="0.1" offset="0%"></stop>
      <stop stop-color="#46FFAA" stop-opacity="0.4" offset="100%"></stop>
    </radialGradient>
    <radialGradient cx="37.8323108%" cy="46.0779709%" fx="37.8323108%" fy="46.0779709%" r="71.7791411%" gradientTransform="translate(0.378323,0.460780),scale(1.000000,0.918741),translate(-0.378323,-0.460780)" id="radialGradient-7">
      <stop stop-color="#6DB2FF" stop-opacity="0.1" offset="2%"></stop>
      <stop stop-color="#46FFAA" stop-opacity="0.4" offset="100%"></stop>
    </radialGradient>
    <radialGradient cx="37.712132%" cy="52.1273789%" fx="37.712132%" fy="52.1273789%" r="72.073922%" gradientTransform="translate(0.377121,0.521274),scale(1.000000,0.914125),rotate(11.480000),translate(-0.377121,-0.521274)" id="radialGradient-8">
      <stop stop-color="#6DB2FF" stop-opacity="0.1" offset="2%"></stop>
      <stop stop-color="#46FFAA" stop-opacity="0.4" offset="100%"></stop>
    </radialGradient>
    <radialGradient cx="50.0076981%" cy="50.0254395%" fx="50.0076981%" fy="50.0254395%" r="50%" id="radialGradient-9">
      <stop stop-color="#6DB2FF" stop-opacity="0.1" offset="0%"></stop>
      <stop stop-color="#46FFAA" stop-opacity="0.4" offset="100%"></stop>
    </radialGradient>
    <radialGradient cx="-8199.43992%" cy="-979.786151%" fx="-8199.43992%" fy="-979.786151%" r="50%" id="radialGradient-10">
      <stop stop-color="#6DB2FF" stop-opacity="0.1" offset="0%"></stop>
      <stop stop-color="#46FFAA" stop-opacity="0.4" offset="100%"></stop>
    </radialGradient>
    <radialGradient cx="49.9686127%" cy="50%" fx="49.9686127%" fy="50%" r="53.9861896%" gradientTransform="translate(0.499686,0.500000),scale(1.000000,0.866703),translate(-0.499686,-0.500000)" id="radialGradient-11">
      <stop stop-color="#6DB2FF" stop-opacity="0.1" offset="0%"></stop>
      <stop stop-color="#46FFAA" stop-opacity="0.4" offset="100%"></stop>
    </radialGradient>
  </defs>
  <g id="Page-1" stroke="none" stroke-width="1" fill="none" fill-rule="evenodd">
    <g id="ev-lines" transform="translate(1.000000, 16.000000)">
      <polyline id="Path" fill="url(#linearGradient-1)" points="81.5916513 425.03 327.31 74.3324166 324.352694 67.8181278 72.12 17.55"></polyline>
      <path d="M36.7089844,11.7167969 L319.67,69" id="Path" stroke="#209D75" stroke-width="2.31514986" stroke-linejoin="round"></path>
      <path d="M323.31,80.44 L72.2929688,431.859375" id="Path" stroke="#209D75" stroke-width="2.31514986" stroke-linejoin="round"></path>
      <polyline id="Path" fill="url(#linearGradient-2)" points="317.986328 388.609375 201.447266 445.496094 190.550781 438.716797 120.97 151.25"></polyline>
      <path d="M120.96,151.25 L191.21,440.5" id="Path" stroke="#209D75" stroke-width="2.31514986" stroke-linejoin="round"></path>
      <path d="M319.02,388 L202.67,445.98" id="Path" stroke="#209D75" stroke-width="2.31514986" stroke-linejoin="round"></path>
      <g id="Group-3" transform="translate(159.000000, 184.000000)">
        <circle id="Oval" fill="url(#radialGradient-3)" cx="10.7" cy="10.56" r="9.82"></circle>
        <circle id="Oval" stroke="#209D75" stroke-width="2.31514986" stroke-linejoin="round" cx="10.7" cy="10.56" r="9.82"></circle>
      </g>
      <polyline id="Path" fill="url(#linearGradient-4)" points="187.76 186.5 16.51 266.63 354.25 483.52"></polyline>
      <polyline id="Path" stroke="#209D75" stroke-width="2.31514986" stroke-linejoin="round" points="160.379471 199.5 16.51 266.680569 300.25 448.52"></polyline>
      <g id="Group-2" transform="translate(307.000000, 454.000000) rotate(36.000000) translate(-307.000000, -454.000000) translate(297.000000, 443.000000)">
        <polygon id="Path" fill="url(#radialGradient-5)" points="0.25 0.52 2.49 21.81 19.81 9.22"></polygon>
        <polygon id="Path" stroke="#209D75" stroke-width="2.31514986" stroke-linejoin="round" points="2.49 21.81 19.81 9.22 0.25 0.52"></polygon>
      </g>
      <polyline id="Path" fill="url(#radialGradient-6)" points="8.48 275.95 16.44 271.36 16.44 262.16 8.48 257.57 0.52 262.16 0.52 271.36 8.48 275.95"></polyline>
      <polygon id="Path" stroke="#209D75" stroke-width="2.31514986" stroke-linejoin="round" points="8.48 275.95 16.44 271.36 16.44 262.16 8.48 257.57 0.52 262.16 0.52 271.36"></polygon>
      <polygon id="Path" fill="url(#radialGradient-7)" transform="translate(70.780000, 437.645000) rotate(9.000000) translate(-70.780000, -437.645000) " points="61 427 63.24 448.29 80.56 435.7"></polygon>
      <polygon id="Path" stroke="#209D75" stroke-width="2.31514986" stroke-linejoin="round" transform="translate(71.780000, 437.645000) rotate(8.000000) translate(-71.780000, -437.645000) " points="64.24 448.29 81.56 435.7 62 427"></polygon>
      <g id="Group-4" transform="translate(122.666016, 145.968750) rotate(12.000000) translate(-122.666016, -145.968750) translate(112.166016, 134.468750)">
        <polygon id="Path" fill="url(#radialGradient-8)" points="2.85 0.83 0.81 22.14 20.29 13.26"></polygon>
        <polygon id="Path" stroke="#209D75" stroke-width="2.31514986" stroke-linejoin="round" points="2.85 0.83 0.81 22.14 20.29 13.26"></polygon>
      </g>
      <g id="Group-5" transform="translate(17.000000, 0.000000)">
        <circle id="Oval" fill="url(#radialGradient-9)" cx="9.97" cy="9.97" r="9.82"></circle>
        <circle id="Oval" stroke="#209D75" stroke-width="2.31514986" stroke-linejoin="round" cx="9.97" cy="9.97" r="9.82"></circle>
      </g>
      <g id="Group" transform="translate(317.000000, 373.000000)">
        <circle id="Oval" fill="url(#radialGradient-10)" cx="9.96" cy="10.6" r="9.82"></circle>
        <circle id="Oval" stroke="#209D75" stroke-width="2.31514986" stroke-linejoin="round" cx="9.96" cy="10.6" r="9.82"></circle>
      </g>
      <polyline id="Path" fill="url(#radialGradient-6)" points="326.98 82.56 334.94 77.97 334.94 68.77 326.98 64.18 319.02 68.77 319.02 77.97 326.98 82.56"></polyline>
      <polygon id="Path" stroke="#209D75" stroke-width="2.31514986" stroke-linejoin="round" points="326.98 82.56 334.94 77.97 334.94 68.77 326.98 64.18 319.02 68.77 319.02 77.97"></polygon>
      <polyline id="Path" fill="url(#radialGradient-11)" points="194.7 456.87 202.67 452.27 202.67 443.08 194.7 438.49 186.74 443.08 186.74 452.27 194.7 456.87"></polyline>
      <polygon id="Path" stroke="#209D75" stroke-width="2.31514986" stroke-linejoin="round" points="194.7 456.87 202.67 452.27 202.67 443.08 194.7 438.49 186.74 443.08 186.74 452.27"></polygon>
    </g>
  </g>
</svg>
